<svg width="200" height="150" viewBox="0 0 200 150" fill="none" xmlns="http://www.w3.org/2000/svg">
<path d="M52.515 20.792C52.515 20.472 52.611 20.312 52.803 20.312C52.867 20.312 53.0057 20.3227 53.219 20.344C53.4323 20.344 53.7203 20.344 54.083 20.344C54.5097 20.344 55.3523 20.344 56.611 20.344C57.891 20.3227 58.6057 20.312 58.755 20.312C59.2457 20.312 59.8643 20.3013 60.611 20.28C61.3577 20.2373 61.9123 20.216 62.275 20.216C64.2163 20.216 65.8377 20.6853 67.139 21.624C68.4403 22.5413 69.091 23.8533 69.091 25.56C69.091 26.1787 68.9737 26.7653 68.739 27.32C68.5257 27.8533 68.259 28.2907 67.939 28.632C67.6403 28.9733 67.331 29.272 67.011 29.528C66.7123 29.7627 66.4457 29.9547 66.211 30.104C65.9977 30.232 65.891 30.3067 65.891 30.328C65.891 30.392 66.0723 30.4773 66.435 30.584C66.7977 30.6693 67.235 30.8293 67.747 31.064C68.259 31.2773 68.7603 31.576 69.251 31.96C69.763 32.344 70.2003 32.92 70.563 33.688C70.9257 34.4347 71.107 35.32 71.107 36.344C71.107 37.2613 70.8403 38.2427 70.307 39.288C69.7737 40.3333 69.1443 41.1013 68.419 41.592C67.4803 42.2533 66.6057 42.7013 65.795 42.936C64.9843 43.1493 64.003 43.256 62.851 43.256C61.9977 43.256 60.867 43.192 59.459 43.064C58.051 42.9573 57.2723 42.904 57.123 42.904C56.8883 42.904 56.4617 42.9253 55.843 42.968C55.2457 43.0107 54.755 43.032 54.371 43.032H53.923C53.475 43.032 53.251 42.872 53.251 42.552C53.251 42.2533 53.3683 42.104 53.603 42.104C53.731 42.104 53.8697 42.104 54.019 42.104C54.1683 42.0827 54.275 42.072 54.339 42.072C54.531 42.072 54.7123 42.008 54.883 41.88C55.075 41.7307 55.267 41.4213 55.459 40.952C55.651 40.4613 55.7577 39.8427 55.779 39.096C55.843 37.7093 55.875 34.3813 55.875 29.112V23.672C55.875 23.5227 55.843 23.352 55.779 23.16C55.7363 22.9467 55.6297 22.68 55.459 22.36C55.3097 22.0187 55.0217 21.7413 54.595 21.528C54.1897 21.2933 53.6777 21.176 53.059 21.176C52.6963 21.176 52.515 21.048 52.515 20.792ZM58.307 40.056C58.307 41.336 59.3523 41.976 61.443 41.976H62.179C63.331 41.976 64.2483 41.9227 64.931 41.816C65.9337 41.6453 66.755 41.1227 67.395 40.248C68.0563 39.3733 68.387 38.328 68.387 37.112C68.387 36.0667 68.195 35.1707 67.811 34.424C67.427 33.656 66.9897 33.08 66.499 32.696C66.0083 32.312 65.4217 32.0133 64.739 31.8C64.0777 31.5867 63.555 31.4587 63.171 31.416C62.8083 31.3733 62.4563 31.352 62.115 31.352C61.4323 31.352 60.867 31.352 60.419 31.352C59.9923 31.3307 59.715 31.32 59.587 31.32C59.4803 31.32 59.3843 31.32 59.299 31.32C59.235 31.2987 59.1817 31.288 59.139 31.288C58.947 31.288 58.8083 31.32 58.723 31.384C58.6377 31.4267 58.5523 31.6293 58.467 31.992C58.403 32.3333 58.3603 32.8347 58.339 33.496C58.339 34.1573 58.339 35.1493 58.339 36.472V36.728C58.339 37.5173 58.339 38.1573 58.339 38.648C58.339 39.1387 58.3283 39.4907 58.307 39.704C58.307 39.896 58.307 40.0133 58.307 40.056ZM58.499 25.56C58.499 26.6267 58.499 27.4587 58.499 28.056C58.5203 28.6533 58.5523 29.112 58.595 29.432C58.6377 29.752 58.6803 29.9547 58.723 30.04C58.7657 30.1253 58.8297 30.168 58.915 30.168C59.5123 30.232 60.0563 30.264 60.547 30.264H62.595C63.939 30.264 64.9417 29.912 65.603 29.208C66.2857 28.504 66.627 27.5973 66.627 26.488C66.627 25.2933 66.0617 24.1413 64.931 23.032C63.8217 21.9013 62.2323 21.336 60.163 21.336C59.5017 21.336 59.0537 21.5387 58.819 21.944C58.6057 22.328 58.499 23.224 58.499 24.632V25.56ZM71.7338 42.744C71.7338 42.4453 71.8938 42.2427 72.2138 42.136C72.8964 41.88 73.4938 41.3147 74.0058 40.44C74.5178 39.544 75.7871 36.888 77.8138 32.472C79.9044 27.9493 81.7498 23.9813 83.3498 20.568C83.4991 20.248 83.6271 20.0453 83.7338 19.96C83.8618 19.8747 84.0538 19.832 84.3098 19.832C84.5018 19.832 84.6298 19.8747 84.6938 19.96C84.7578 20.0453 84.8964 20.3973 85.1098 21.016C85.2378 21.3787 85.3444 21.688 85.4298 21.944C85.5364 22.2 85.6964 22.616 85.9098 23.192C86.1231 23.768 86.3578 24.3653 86.6138 24.984C87.2964 26.6693 88.4698 29.464 90.1338 33.368C91.8191 37.2507 92.7364 39.352 92.8858 39.672C93.2484 40.3973 93.6538 40.952 94.1018 41.336C94.5498 41.6987 94.9338 41.9013 95.2538 41.944C95.5951 41.9653 95.8724 42.0187 96.0858 42.104C96.3204 42.168 96.4378 42.328 96.4378 42.584C96.4378 42.904 96.1498 43.064 95.5738 43.064C95.3391 43.064 94.8804 43.032 94.1978 42.968C93.5151 42.904 93.0138 42.872 92.6938 42.872C92.2884 42.872 91.7658 42.8933 91.1258 42.936C90.4858 42.9787 90.0164 43 89.7178 43C89.0564 43 88.6298 42.9787 88.4378 42.936C88.2671 42.872 88.1818 42.744 88.1818 42.552C88.1818 42.4027 88.2671 42.2853 88.4378 42.2C88.6084 42.0933 88.7898 42.0293 88.9818 42.008C89.1738 41.9653 89.3551 41.8693 89.5258 41.72C89.6964 41.5493 89.7818 41.3253 89.7818 41.048C89.7818 40.5787 89.5151 39.6187 88.9818 38.168C88.4484 36.7173 88.0004 35.6507 87.6378 34.968C87.4458 34.6053 87.0084 34.424 86.3258 34.424C86.2191 34.424 85.7498 34.4347 84.9178 34.456C84.0858 34.4773 83.2644 34.488 82.4538 34.488H80.7578C79.7978 34.488 79.1898 34.5413 78.9338 34.648C78.6991 34.7547 78.4858 35.0107 78.2938 35.416C78.1658 35.6933 77.9524 36.1413 77.6538 36.76C77.3551 37.3573 77.1524 37.7733 77.0458 38.008C76.9391 38.2427 76.8004 38.552 76.6298 38.936C76.4804 39.2987 76.3738 39.5973 76.3098 39.832C76.2671 40.0453 76.2458 40.2373 76.2458 40.408C76.2458 40.8987 76.3631 41.272 76.5978 41.528C76.8538 41.784 77.1311 41.9333 77.4298 41.976C77.7284 41.9973 77.9951 42.0507 78.2298 42.136C78.4858 42.2213 78.6138 42.3707 78.6138 42.584C78.6138 42.7333 78.5818 42.8507 78.5178 42.936C78.4538 43 78.3044 43.032 78.0698 43.032C77.9418 43.032 77.5684 43.0213 76.9498 43C76.3524 43 75.8404 43 75.4138 43C74.9444 43 74.4111 43.0213 73.8138 43.064C73.2378 43.1067 72.8538 43.128 72.6618 43.128C72.0431 43.128 71.7338 43 71.7338 42.744ZM79.7658 32.184C79.7658 32.4613 79.8618 32.632 80.0538 32.696C80.2458 32.76 80.6938 32.792 81.3978 32.792H82.3898L85.4298 32.76C86.2618 32.76 86.6778 32.5893 86.6778 32.248C86.6778 31.9707 86.1551 30.6587 85.1098 28.312C84.0644 25.944 83.4031 24.76 83.1258 24.76C82.9338 24.76 82.3258 25.944 81.3018 28.312C80.2778 30.6587 79.7658 31.9493 79.7658 32.184ZM98.4818 37.016C98.4818 36.568 98.6311 36.344 98.9298 36.344C99.2071 36.344 99.3778 36.4507 99.4418 36.664C99.6551 37.176 99.8471 37.624 100.018 38.008C100.21 38.3707 100.508 38.8293 100.914 39.384C101.319 39.9173 101.756 40.3653 102.226 40.728C102.695 41.0693 103.292 41.368 104.018 41.624C104.764 41.88 105.575 42.008 106.45 42.008C108.05 42.008 109.33 41.592 110.29 40.76C111.271 39.9067 111.762 38.7973 111.762 37.432C111.762 36.4293 111.431 35.5973 110.77 34.936C110.108 34.2533 109.351 33.7733 108.498 33.496C107.644 33.1973 106.556 32.8133 105.234 32.344C103.932 31.8533 102.866 31.3627 102.034 30.872C100.092 29.72 99.1218 28.152 99.1218 26.168C99.1218 24.2693 99.8044 22.7547 101.17 21.624C102.556 20.472 104.348 19.896 106.546 19.896C107.356 19.896 108.316 20.0773 109.426 20.44C110.556 20.7813 111.132 20.952 111.154 20.952C111.218 20.952 111.335 20.9093 111.506 20.824C111.676 20.7387 111.804 20.696 111.89 20.696C112.167 20.696 112.327 20.7813 112.37 20.952C112.818 23.5333 113.042 24.984 113.042 25.304C113.042 25.9013 112.892 26.2 112.594 26.2C112.402 26.2 112.252 26.0507 112.146 25.752C111.89 25.1333 111.634 24.632 111.378 24.248C111.143 23.864 110.972 23.6187 110.866 23.512C110.759 23.4053 110.482 23.1493 110.034 22.744C108.882 21.72 107.484 21.208 105.842 21.208C104.519 21.208 103.41 21.528 102.514 22.168C101.618 22.808 101.17 23.672 101.17 24.76C101.17 25.72 101.426 26.5093 101.938 27.128C102.471 27.7467 103.175 28.2267 104.05 28.568C104.924 28.9093 105.842 29.2293 106.802 29.528C107.762 29.8267 108.775 30.2427 109.842 30.776C110.93 31.3093 111.826 31.9493 112.53 32.696C113.383 33.6133 113.81 34.7547 113.81 36.12C113.81 38.36 113.095 40.1413 111.666 41.464C110.236 42.7653 108.466 43.416 106.354 43.416C104.882 43.416 103.698 43.3307 102.802 43.16C101.906 43.0107 100.988 42.6907 100.05 42.2C99.7724 42.0293 99.4418 41.1973 99.0578 39.704C98.6738 38.2107 98.4818 37.3147 98.4818 37.016ZM116.296 20.632C116.296 20.3973 116.595 20.28 117.192 20.28C117.406 20.28 117.896 20.3013 118.664 20.344C119.432 20.3867 120.147 20.408 120.808 20.408C121.214 20.408 121.598 20.3973 121.96 20.376C122.344 20.3547 122.899 20.344 123.624 20.344C124.094 20.344 124.328 20.4933 124.328 20.792C124.328 21.1547 123.955 21.336 123.208 21.336C122.782 21.336 122.472 21.7733 122.28 22.648C122.088 23.5227 121.992 24.4187 121.992 25.336V26.52C121.992 27.032 121.982 27.6187 121.96 28.28C121.939 28.92 121.928 29.3147 121.928 29.464C121.928 29.9973 121.992 30.3387 122.12 30.488C122.248 30.6373 122.547 30.712 123.016 30.712C123.059 30.712 123.475 30.712 124.264 30.712C125.054 30.6907 126.387 30.68 128.264 30.68C128.435 30.68 128.723 30.6907 129.128 30.712C129.534 30.712 130.195 30.7227 131.112 30.744C132.051 30.744 133.118 30.744 134.312 30.744C134.462 30.744 134.558 30.5627 134.6 30.2C134.643 29.7733 134.664 28.472 134.664 26.296V24.568C134.664 23.736 134.568 23.0747 134.376 22.584C134.206 22.0933 133.982 21.7733 133.704 21.624C133.448 21.4747 133.182 21.3787 132.904 21.336C132.648 21.2933 132.424 21.24 132.232 21.176C132.062 21.0907 131.976 20.9413 131.976 20.728C131.976 20.5147 132.392 20.408 133.224 20.408C133.438 20.408 133.896 20.4187 134.6 20.44C135.304 20.4613 135.88 20.472 136.328 20.472C136.542 20.472 136.904 20.4613 137.416 20.44C137.928 20.4187 138.398 20.408 138.824 20.408C139.315 20.408 139.56 20.5467 139.56 20.824C139.56 21.1013 139.411 21.24 139.112 21.24C138.515 21.24 138.056 21.4213 137.736 21.784C137.438 22.1467 137.288 22.6267 137.288 23.224C137.288 23.928 137.267 25.176 137.224 26.968C137.203 28.7387 137.192 30.0827 137.192 31C137.192 31.4907 137.182 32.2693 137.16 33.336C137.139 34.3813 137.128 35.2027 137.128 35.8V36.984C137.128 37.624 137.15 38.2213 137.192 38.776C137.235 39.3093 137.256 39.6933 137.256 39.928C137.256 41.3147 138.152 42.104 139.944 42.296C140.2 42.296 140.328 42.4133 140.328 42.648C140.328 42.7973 140.222 42.8933 140.008 42.936C139.795 42.9787 139.379 43 138.76 43C138.526 43 138.131 42.9787 137.576 42.936C137.043 42.872 136.616 42.84 136.296 42.84C135.912 42.84 135.443 42.872 134.888 42.936C134.355 42.9787 133.822 43 133.288 43C133.032 43 132.851 43 132.744 43C132.638 43 132.52 42.9893 132.392 42.968C132.286 42.9253 132.211 42.8827 132.168 42.84C132.147 42.776 132.136 42.6907 132.136 42.584C132.136 42.456 132.243 42.3387 132.456 42.232C132.67 42.1253 132.904 42.04 133.16 41.976C133.416 41.912 133.662 41.7947 133.896 41.624C134.152 41.432 134.302 41.1973 134.344 40.92C134.494 40.152 134.568 39.3733 134.568 38.584C134.568 38.3707 134.568 38.072 134.568 37.688C134.59 37.304 134.6 37.0267 134.6 36.856C134.6 36.472 134.611 35.8427 134.632 34.968C134.654 34.0933 134.664 33.4107 134.664 32.92C134.664 32.6 134.536 32.376 134.28 32.248C134.024 32.12 133.48 32.056 132.648 32.056C132.328 32.056 131.592 32.0773 130.44 32.12L128.712 32.152C127.774 32.152 126.718 32.1413 125.544 32.12C124.371 32.0773 123.464 32.056 122.824 32.056C122.504 32.056 122.291 32.12 122.184 32.248C122.078 32.376 122.024 32.7067 122.024 33.24C122.024 33.7733 122.003 34.4667 121.96 35.32C121.918 36.1733 121.896 36.792 121.896 37.176V38.552C121.896 39.4693 121.982 40.152 122.152 40.6C122.323 41.048 122.739 41.4853 123.4 41.912C123.571 42.0187 124.03 42.072 124.776 42.072C124.926 42.072 125.064 42.1147 125.192 42.2C125.32 42.264 125.384 42.3387 125.384 42.424C125.384 42.808 125.043 43 124.36 43C123.72 43 123.187 42.9787 122.76 42.936C122.355 42.8933 122.003 42.872 121.704 42.872C121.107 42.872 120.467 42.904 119.784 42.968C119.102 43.0107 118.59 43.032 118.248 43.032C117.246 43.032 116.744 42.872 116.744 42.552C116.744 42.36 116.84 42.232 117.032 42.168C117.246 42.0827 117.48 42.0293 117.736 42.008C117.992 41.9653 118.259 41.8267 118.536 41.592C118.814 41.336 119.006 40.9733 119.112 40.504C119.176 40.1413 119.262 39.0427 119.368 37.208C119.475 35.3733 119.528 33.624 119.528 31.96V30.136C119.528 29.8587 119.528 29.336 119.528 28.568C119.55 27.7787 119.56 27.1493 119.56 26.68C119.56 25.0587 119.496 23.7893 119.368 22.872C119.304 22.3387 119.016 21.9227 118.504 21.624C118.014 21.3253 117.502 21.176 116.968 21.176C116.755 21.176 116.584 21.112 116.456 20.984C116.35 20.8347 116.296 20.7173 116.296 20.632ZM26.673 87.928C26.673 87.8 26.6837 87.5973 26.705 87.32C26.7477 87.0213 26.8223 86.68 26.929 86.296C27.057 85.8907 27.217 85.688 27.409 85.688C27.6223 85.688 27.7823 85.7627 27.889 85.912C28.017 86.04 28.1877 86.3493 28.401 86.84C28.6357 87.3093 28.8063 87.6507 28.913 87.864C29.2543 88.4827 29.777 89.016 30.481 89.464C31.185 89.912 31.8357 90.136 32.433 90.136C32.6463 90.136 32.753 89.976 32.753 89.656C32.753 88.2907 32.7637 86.7547 32.785 85.048C32.8277 83.32 32.849 81.848 32.849 80.632C32.849 80.3333 32.465 80.0667 31.697 79.832C30.4383 79.4267 29.4037 78.8293 28.593 78.04C27.8037 77.2507 27.409 76.0987 27.409 74.584C27.409 73.0693 27.9317 71.7787 28.977 70.712C30.0223 69.6453 31.2597 69.016 32.689 68.824C32.8383 68.8027 32.945 68.7493 33.009 68.664C33.073 68.5787 33.105 68.3867 33.105 68.088C33.105 67.96 33.0943 67.8107 33.073 67.64C33.073 67.4693 33.073 67.3307 33.073 67.224C33.073 66.7333 33.3077 66.488 33.777 66.488C34.097 66.488 34.289 66.5307 34.353 66.616C34.4383 66.7013 34.481 66.8507 34.481 67.064C34.481 67.32 34.481 67.5547 34.481 67.768C34.481 67.9813 34.4703 68.152 34.449 68.28C34.449 68.408 34.449 68.4827 34.449 68.504C34.449 68.696 34.5023 68.792 34.609 68.792C35.2917 68.8773 35.921 69.0267 36.497 69.24C37.073 69.4533 37.521 69.6773 37.841 69.912C38.161 70.1467 38.4277 70.392 38.641 70.648C38.8757 70.8827 39.0357 71.0853 39.121 71.256C39.2063 71.4053 39.249 71.512 39.249 71.576C39.249 71.896 39.1317 72.3227 38.897 72.856C38.6837 73.368 38.481 73.624 38.289 73.624C38.097 73.624 37.9583 73.5067 37.873 73.272C37.5103 72.4827 37.0197 71.768 36.401 71.128C35.7823 70.4667 35.185 70.136 34.609 70.136C34.417 70.136 34.321 70.3387 34.321 70.744C34.321 72.536 34.289 73.9227 34.225 74.904C34.1823 75.8853 34.161 76.5893 34.161 77.016C34.161 77.3573 34.1823 77.5813 34.225 77.688C34.2677 77.7947 34.385 77.8693 34.577 77.912C36.497 78.4453 37.9157 79.224 38.833 80.248C39.7717 81.272 40.241 82.6373 40.241 84.344C40.241 85.4107 40.0597 86.3707 39.697 87.224C39.3557 88.0773 38.8863 88.76 38.289 89.272C37.6917 89.784 37.0943 90.2 36.497 90.52C35.921 90.8187 35.3023 91.0533 34.641 91.224C34.577 91.2453 34.5023 91.2667 34.417 91.288C34.161 91.352 34.0223 91.4373 34.001 91.544C33.9797 91.608 33.969 91.704 33.969 91.832V92.44V94.456C33.969 95.032 33.9157 95.3947 33.809 95.544C33.7237 95.7147 33.5423 95.8 33.265 95.8C32.817 95.8 32.593 95.576 32.593 95.128C32.593 94.744 32.6037 94.1787 32.625 93.432C32.6677 92.7067 32.689 92.2267 32.689 91.992C32.689 91.5867 32.625 91.384 32.497 91.384C31.4943 91.384 30.449 91.1493 29.361 90.68C28.273 90.1893 27.4943 89.656 27.025 89.08C26.7903 88.8027 26.673 88.4187 26.673 87.928ZM29.297 73.752C29.297 75.544 30.417 76.728 32.657 77.304H32.721C32.913 77.304 33.009 77.1227 33.009 76.76C33.009 75.8213 33.009 74.7653 33.009 73.592C33.0303 72.4187 33.041 71.384 33.041 70.488C33.041 70.232 32.9237 70.104 32.689 70.104C32.113 70.104 31.3983 70.4347 30.545 71.096C29.713 71.736 29.297 72.6213 29.297 73.752ZM34.001 89.72C34.001 89.9973 34.0757 90.136 34.225 90.136C34.3317 90.136 34.5023 90.1147 34.737 90.072C34.9717 90.0293 35.3023 89.9013 35.729 89.688C36.177 89.4747 36.5823 89.208 36.945 88.888C37.3077 88.5467 37.6277 88.0453 37.905 87.384C38.1823 86.7227 38.321 85.9547 38.321 85.08C38.321 84.4187 38.1823 83.8213 37.905 83.288C37.649 82.7547 37.329 82.3387 36.945 82.04C36.5823 81.7413 36.1983 81.496 35.793 81.304C35.3877 81.0907 35.057 80.952 34.801 80.888C34.5663 80.8027 34.417 80.76 34.353 80.76C34.2037 80.76 34.129 80.9093 34.129 81.208C34.129 82.3387 34.1077 83.7573 34.065 85.464C34.0223 87.1707 34.001 88.5893 34.001 89.72ZM42.6155 80.408C42.6155 80.3013 42.7542 80.0347 43.0315 79.608C43.3302 79.096 43.7142 78.4453 44.1835 77.656C45.0795 76.1413 45.6662 75.2133 45.9435 74.872C46.2208 74.5093 46.5302 74.328 46.8715 74.328C47.2342 74.328 47.5435 74.5093 47.7995 74.872C48.0768 75.2133 48.6528 76.12 49.5275 77.592C49.9968 78.4027 50.3915 79.0747 50.7115 79.608C50.9462 79.9707 51.0635 80.2587 51.0635 80.472C51.0635 80.6427 50.8715 80.728 50.4875 80.728H50.0075C49.9008 80.728 49.8048 80.7173 49.7195 80.696C49.6342 80.6533 49.5595 80.5893 49.4955 80.504C49.4315 80.3973 49.3782 80.312 49.3355 80.248C49.2928 80.184 49.2395 80.088 49.1755 79.96C49.1115 79.832 49.0688 79.736 49.0475 79.672C48.8982 79.416 48.7488 79.1493 48.5995 78.872C48.4502 78.5733 48.3222 78.328 48.2155 78.136C48.1302 77.944 48.0235 77.752 47.8955 77.56C47.7888 77.3467 47.7035 77.176 47.6395 77.048C47.5755 76.92 47.5008 76.792 47.4155 76.664C47.3515 76.536 47.2875 76.44 47.2235 76.376C47.1808 76.312 47.1382 76.248 47.0955 76.184C47.0528 76.12 47.0102 76.0773 46.9675 76.056C46.9462 76.0347 46.9142 76.024 46.8715 76.024C46.8288 76.024 46.7755 76.0453 46.7115 76.088C46.6688 76.1307 46.6155 76.2053 46.5515 76.312C46.4875 76.3973 46.4128 76.504 46.3275 76.632C46.2635 76.7387 46.1675 76.9093 46.0395 77.144C45.9328 77.3573 45.8155 77.5707 45.6875 77.784C45.5808 77.9973 45.4315 78.2853 45.2395 78.648C45.0475 79.0107 44.8662 79.352 44.6955 79.672C44.6742 79.7147 44.6315 79.8 44.5675 79.928C44.5035 80.0347 44.4608 80.1093 44.4395 80.152C44.4182 80.1947 44.3755 80.2693 44.3115 80.376C44.2475 80.4613 44.1835 80.5253 44.1195 80.568C44.0768 80.5893 44.0128 80.6213 43.9275 80.664C43.8635 80.6853 43.7888 80.696 43.7035 80.696H43.2555C42.8288 80.696 42.6155 80.6 42.6155 80.408ZM53.2718 85.496C53.2718 85.4107 53.4211 85.144 53.7198 84.696C54.0184 84.2267 54.4451 83.7467 54.9998 83.256C55.5544 82.7653 56.0984 82.52 56.6318 82.52C57.1224 82.52 57.7411 82.7653 58.4878 83.256C59.2558 83.7253 59.8851 83.96 60.3758 83.96C60.8238 83.96 61.2291 83.832 61.5918 83.576C61.9758 83.32 62.2744 83.064 62.4878 82.808C62.7011 82.5307 62.8504 82.392 62.9358 82.392C63.3624 82.392 63.5758 82.552 63.5758 82.872C63.5758 82.9787 63.4158 83.256 63.0958 83.704C62.7758 84.1307 62.3064 84.5787 61.6878 85.048C61.0691 85.5173 60.4504 85.752 59.8318 85.752C59.2344 85.752 58.5838 85.5067 57.8798 85.016C57.1971 84.5253 56.6424 84.28 56.2158 84.28C55.7891 84.28 55.4051 84.4293 55.0638 84.728C54.7224 85.0053 54.4558 85.2933 54.2638 85.592C54.0931 85.8693 53.9758 86.008 53.9118 86.008C53.4851 86.008 53.2718 85.8373 53.2718 85.496Z" fill="white"/>
<path d="M48.888 130.016C48.888 129.568 49.0373 129.344 49.336 129.344C49.6133 129.344 49.784 129.451 49.848 129.664C50.0613 130.176 50.2533 130.624 50.424 131.008C50.616 131.371 50.9147 131.829 51.32 132.384C51.7253 132.917 52.1627 133.365 52.632 133.728C53.1013 134.069 53.6987 134.368 54.424 134.624C55.1707 134.88 55.9813 135.008 56.856 135.008C58.456 135.008 59.736 134.592 60.696 133.76C61.6773 132.907 62.168 131.797 62.168 130.432C62.168 129.429 61.8373 128.597 61.176 127.936C60.5147 127.253 59.7573 126.773 58.904 126.496C58.0507 126.197 56.9627 125.813 55.64 125.344C54.3387 124.853 53.272 124.363 52.44 123.872C50.4987 122.72 49.528 121.152 49.528 119.168C49.528 117.269 50.2107 115.755 51.576 114.624C52.9627 113.472 54.7547 112.896 56.952 112.896C57.7627 112.896 58.7227 113.077 59.832 113.44C60.9627 113.781 61.5387 113.952 61.56 113.952C61.624 113.952 61.7413 113.909 61.912 113.824C62.0827 113.739 62.2107 113.696 62.296 113.696C62.5733 113.696 62.7333 113.781 62.776 113.952C63.224 116.533 63.448 117.984 63.448 118.304C63.448 118.901 63.2987 119.2 63 119.2C62.808 119.2 62.6587 119.051 62.552 118.752C62.296 118.133 62.04 117.632 61.784 117.248C61.5493 116.864 61.3787 116.619 61.272 116.512C61.1653 116.405 60.888 116.149 60.44 115.744C59.288 114.72 57.8907 114.208 56.248 114.208C54.9253 114.208 53.816 114.528 52.92 115.168C52.024 115.808 51.576 116.672 51.576 117.76C51.576 118.72 51.832 119.509 52.344 120.128C52.8773 120.747 53.5813 121.227 54.456 121.568C55.3307 121.909 56.248 122.229 57.208 122.528C58.168 122.827 59.1813 123.243 60.248 123.776C61.336 124.309 62.232 124.949 62.936 125.696C63.7893 126.613 64.216 127.755 64.216 129.12C64.216 131.36 63.5013 133.141 62.072 134.464C60.6427 135.765 58.872 136.416 56.76 136.416C55.288 136.416 54.104 136.331 53.208 136.16C52.312 136.011 51.3947 135.691 50.456 135.2C50.1787 135.029 49.848 134.197 49.464 132.704C49.08 131.211 48.888 130.315 48.888 130.016ZM67.3105 129.856C67.3105 127.808 67.9932 126.037 69.3585 124.544C70.7452 123.029 72.5372 122.272 74.7345 122.272C75.4812 122.272 76.2812 122.379 77.1345 122.592C78.0092 122.805 78.4572 123.051 78.4785 123.328C78.5212 123.84 78.5425 124.341 78.5425 124.832C78.5425 125.771 78.4252 126.24 78.1905 126.24C78.0625 126.24 77.9452 126.197 77.8385 126.112C77.7532 126.005 77.6465 125.856 77.5185 125.664C77.4118 125.472 77.2838 125.323 77.1345 125.216C76.6652 124.811 76.0252 124.427 75.2145 124.064C74.4252 123.701 73.6465 123.52 72.8785 123.52C72.7292 123.52 72.5372 123.563 72.3025 123.648C72.0678 123.712 71.7905 123.872 71.4705 124.128C71.1718 124.363 70.8945 124.672 70.6385 125.056C70.3825 125.419 70.1585 125.931 69.9665 126.592C69.7958 127.253 69.7105 128 69.7105 128.832C69.7105 130.496 70.2332 131.947 71.2785 133.184C72.3452 134.4 73.6465 135.008 75.1825 135.008C75.9292 135.008 76.6225 134.869 77.2625 134.592C77.9025 134.315 78.3932 134.037 78.7345 133.76C79.0972 133.483 79.3212 133.344 79.4065 133.344C79.6412 133.344 79.7585 133.451 79.7585 133.664C79.7585 133.728 79.6838 133.867 79.5345 134.08C79.4065 134.293 79.1825 134.549 78.8625 134.848C78.5638 135.147 78.2012 135.435 77.7745 135.712C77.3478 135.968 76.7932 136.192 76.1105 136.384C75.4278 136.576 74.7025 136.672 73.9345 136.672C71.9292 136.672 70.3185 136.064 69.1025 134.848C67.9078 133.632 67.3105 131.968 67.3105 129.856ZM81.2353 123.84C81.2353 123.605 81.3739 123.435 81.6513 123.328C81.9499 123.2 82.4833 123.019 83.2513 122.784C84.0406 122.528 84.7766 122.24 85.4593 121.92C85.6726 121.835 85.8219 121.792 85.9073 121.792C86.1846 121.792 86.3233 122.005 86.3233 122.432C86.3233 122.517 86.3126 122.656 86.2913 122.848C86.2913 123.04 86.2913 123.189 86.2913 123.296C86.2913 123.744 86.3019 124.064 86.3233 124.256C86.3446 124.448 86.3659 124.565 86.3873 124.608C86.4299 124.651 86.4833 124.672 86.5473 124.672C86.5899 124.672 86.7499 124.459 87.0273 124.032C87.3046 123.605 87.6993 123.179 88.2113 122.752C88.7233 122.304 89.2886 122.08 89.9073 122.08C90.2913 122.08 90.7926 122.283 91.4113 122.688C91.8593 122.987 92.0833 123.296 92.0833 123.616C92.0833 124 91.9979 124.341 91.8273 124.64C91.6566 124.939 91.4859 125.141 91.3153 125.248C91.1659 125.355 91.0593 125.408 90.9953 125.408C90.8246 125.408 90.5153 125.28 90.0673 125.024C89.6406 124.768 89.1393 124.64 88.5633 124.64C87.9873 124.64 87.4433 124.875 86.9313 125.344C86.4406 125.813 86.1953 126.24 86.1953 126.624V129.952C86.1953 130.72 86.1953 131.349 86.1953 131.84C86.2166 132.309 86.2273 132.608 86.2273 132.736C86.2273 132.843 86.2273 132.939 86.2273 133.024C86.2486 133.109 86.2593 133.205 86.2593 133.312C86.2593 133.76 86.4086 134.144 86.7073 134.464C87.0059 134.784 87.3579 134.976 87.7633 135.04C87.8913 135.061 88.0513 135.083 88.2433 135.104C88.4353 135.125 88.5846 135.147 88.6913 135.168C88.7979 135.168 88.9153 135.189 89.0433 135.232C89.1713 135.253 89.2566 135.296 89.2993 135.36C89.3633 135.424 89.3953 135.499 89.3953 135.584C89.3953 135.925 89.2673 136.096 89.0113 136.096C88.6486 136.096 88.1579 136.064 87.5393 136C86.9206 135.957 86.5046 135.936 86.2913 135.936C85.6086 135.936 84.9046 135.957 84.1793 136C83.4539 136.064 83.0486 136.096 82.9633 136.096C82.7499 136.096 82.5899 136.075 82.4833 136.032C82.3766 135.989 82.3126 135.947 82.2913 135.904C82.2699 135.861 82.2593 135.797 82.2593 135.712C82.2593 135.435 82.3979 135.253 82.6753 135.168C83.2299 135.04 83.5606 134.773 83.6673 134.368C83.7953 133.941 83.8593 133.045 83.8593 131.68C83.8593 130.293 83.8486 129.152 83.8273 128.256C83.8273 127.36 83.8273 126.795 83.8273 126.56C83.8273 126.304 83.8166 126.101 83.7953 125.952C83.7953 125.803 83.7953 125.675 83.7953 125.568C83.7953 125.333 83.7633 125.141 83.6993 124.992C83.6353 124.843 83.4753 124.704 83.2193 124.576C82.9846 124.448 82.6433 124.384 82.1953 124.384C82.1739 124.384 82.1206 124.384 82.0353 124.384C81.9499 124.363 81.8859 124.352 81.8433 124.352C81.4379 124.352 81.2353 124.181 81.2353 123.84ZM93.6833 123.808C93.6833 123.701 93.7046 123.616 93.7473 123.552C93.8113 123.488 93.9179 123.424 94.0673 123.36C94.2379 123.275 94.4086 123.211 94.5793 123.168C94.7499 123.104 94.9953 123.019 95.3153 122.912C95.6566 122.784 95.9766 122.656 96.2753 122.528C96.5099 122.421 96.7233 122.325 96.9153 122.24C97.1286 122.155 97.2673 122.101 97.3313 122.08C97.3953 122.037 97.4699 122.005 97.5553 121.984C97.6406 121.963 97.7473 121.952 97.8753 121.952C98.1953 121.952 98.3553 122.155 98.3553 122.56C98.3553 122.667 98.3233 122.901 98.2593 123.264C98.1953 123.627 98.1633 123.904 98.1633 124.096V132.864C98.1633 133.504 98.2593 134.005 98.4513 134.368C98.6646 134.731 98.8779 134.955 99.0913 135.04C99.3259 135.125 99.6139 135.179 99.9553 135.2C100.211 135.221 100.382 135.243 100.467 135.264C100.553 135.264 100.649 135.296 100.755 135.36C100.862 135.424 100.915 135.531 100.915 135.68C100.915 136.043 100.734 136.224 100.371 136.224C100.329 136.224 100.254 136.213 100.147 136.192C100.041 136.192 99.9553 136.192 99.8913 136.192C99.4219 136.192 99.0273 136.181 98.7073 136.16C98.3873 136.139 98.0246 136.128 97.6193 136.128C97.1073 136.128 96.6273 136.139 96.1793 136.16C95.7313 136.181 95.4539 136.192 95.3473 136.192C94.4939 136.192 94.0673 136.053 94.0673 135.776C94.0673 135.477 94.2273 135.275 94.5473 135.168C94.5686 135.168 94.6113 135.157 94.6753 135.136C95.1659 134.965 95.4646 134.752 95.5713 134.496C95.7633 134.069 95.8593 132.373 95.8593 129.408V126.592C95.8593 125.973 95.7846 125.483 95.6353 125.12C95.4859 124.757 95.3473 124.533 95.2193 124.448C95.0913 124.363 94.8673 124.299 94.5473 124.256C94.2486 124.192 94.0673 124.149 94.0033 124.128C93.7899 124.043 93.6833 123.936 93.6833 123.808ZM95.5073 117.12C95.5073 116.864 95.6886 116.512 96.0513 116.064C96.4353 115.595 96.7873 115.36 97.1073 115.36C97.4486 115.36 97.7793 115.584 98.0993 116.032C98.4193 116.459 98.5793 116.843 98.5793 117.184C98.5793 117.525 98.3766 117.909 97.9713 118.336C97.5659 118.741 97.2673 118.944 97.0753 118.944C96.6486 118.944 96.2753 118.72 95.9553 118.272C95.6566 117.824 95.5073 117.44 95.5073 117.12ZM102.461 123.68C102.461 123.573 102.546 123.488 102.717 123.424C102.909 123.36 103.282 123.243 103.837 123.072C104.391 122.901 104.978 122.667 105.597 122.368C106.429 121.963 106.877 121.76 106.941 121.76C107.218 121.76 107.357 121.899 107.357 122.176C107.357 122.624 107.335 123.04 107.293 123.424C107.25 123.787 107.229 124 107.229 124.064C107.229 124.235 107.261 124.32 107.325 124.32C107.346 124.32 107.431 124.245 107.581 124.096C107.751 123.947 107.965 123.765 108.221 123.552C108.477 123.317 108.775 123.093 109.117 122.88C109.479 122.667 109.927 122.485 110.461 122.336C110.994 122.187 111.549 122.112 112.125 122.112C114.023 122.112 115.474 122.741 116.477 124C117.479 125.237 117.981 126.752 117.981 128.544C117.981 130.528 117.351 132.32 116.093 133.92C114.855 135.499 113.191 136.288 111.101 136.288C110.119 136.288 109.319 136.192 108.701 136C108.103 135.787 107.687 135.584 107.453 135.392C107.218 135.179 107.058 135.072 106.973 135.072C106.909 135.072 106.877 135.157 106.877 135.328V138.848V139.264C106.877 139.669 107.058 140.171 107.421 140.768C107.655 141.152 108.007 141.376 108.477 141.44C108.967 141.504 109.373 141.547 109.693 141.568C110.034 141.589 110.205 141.739 110.205 142.016C110.205 142.272 109.842 142.4 109.117 142.4C108.989 142.4 108.647 142.379 108.093 142.336C107.538 142.293 106.77 142.272 105.789 142.272C105.405 142.272 104.989 142.283 104.541 142.304C104.114 142.347 103.858 142.368 103.773 142.368C103.303 142.368 103.005 142.347 102.877 142.304C102.749 142.261 102.685 142.176 102.685 142.048C102.685 141.856 102.781 141.717 102.973 141.632C103.186 141.547 103.421 141.472 103.677 141.408C103.933 141.344 104.157 141.077 104.349 140.608C104.562 140.16 104.669 139.499 104.669 138.624V137.984C104.669 135.467 104.679 133.376 104.701 131.712C104.743 130.048 104.765 129.195 104.765 129.152V128.448C104.765 126.677 104.679 125.504 104.509 124.928C104.359 124.331 103.943 124.032 103.261 124.032C102.898 124.032 102.674 124.011 102.589 123.968C102.503 123.904 102.461 123.808 102.461 123.68ZM106.877 129.856C106.877 130.069 106.877 130.336 106.877 130.656C106.898 130.976 106.909 131.243 106.909 131.456C106.909 132.203 107.069 132.843 107.389 133.376C107.709 133.909 108.114 134.315 108.605 134.592C109.117 134.848 109.618 135.04 110.109 135.168C110.621 135.275 111.122 135.328 111.613 135.328C112.999 135.328 114.055 134.827 114.781 133.824C115.527 132.8 115.901 131.552 115.901 130.08C115.901 128.395 115.442 126.912 114.525 125.632C113.629 124.352 112.413 123.712 110.877 123.712C109.789 123.712 108.818 124.053 107.965 124.736C107.517 125.077 107.218 125.547 107.069 126.144C106.941 126.72 106.877 127.957 106.877 129.856ZM119.927 123.712C119.927 123.584 119.959 123.477 120.023 123.392C120.108 123.285 120.215 123.189 120.343 123.104C120.471 123.019 120.652 122.88 120.887 122.688C121.143 122.475 121.388 122.24 121.623 121.984C121.943 121.643 122.273 121.237 122.615 120.768C122.977 120.277 123.255 119.925 123.447 119.712C123.66 119.477 123.863 119.36 124.055 119.36C124.289 119.36 124.407 119.605 124.407 120.096C124.407 120.288 124.385 120.587 124.343 120.992C124.3 121.397 124.279 121.707 124.279 121.92C124.279 122.219 124.332 122.4 124.439 122.464C124.567 122.528 124.951 122.56 125.591 122.56H126.711C127.18 122.56 127.575 122.539 127.895 122.496C128.236 122.453 128.471 122.4 128.599 122.336C128.727 122.272 128.833 122.219 128.919 122.176C129.025 122.133 129.111 122.112 129.175 122.112C129.388 122.112 129.495 122.229 129.495 122.464C129.495 122.635 129.356 122.976 129.079 123.488C128.801 123.979 128.599 124.224 128.47 124.224C128.151 124.224 127.841 124.224 127.543 124.224C127.244 124.203 126.988 124.192 126.775 124.192C126.561 124.171 126.359 124.149 126.167 124.128C125.975 124.107 125.815 124.096 125.687 124.096C125.559 124.075 125.441 124.064 125.335 124.064C125.249 124.043 125.185 124.032 125.143 124.032L125.079 124C124.673 124 124.407 124.064 124.279 124.192C124.172 124.32 124.119 124.608 124.119 125.056C124.119 125.291 124.097 126.187 124.055 127.744C124.012 129.28 123.991 130.368 123.991 131.008C123.991 132.395 124.161 133.365 124.503 133.92C124.865 134.453 125.612 134.72 126.743 134.72C127.191 134.72 127.681 134.624 128.215 134.432C128.769 134.219 129.068 134.112 129.111 134.112C129.324 134.112 129.431 134.24 129.431 134.496C129.431 134.795 129.057 135.179 128.311 135.648C127.585 136.096 126.796 136.32 125.943 136.32C123.063 136.32 121.623 135.072 121.623 132.576V132.096C121.623 131.264 121.633 130.251 121.655 129.056C121.676 127.861 121.697 126.837 121.719 125.984C121.74 125.109 121.751 124.661 121.751 124.64C121.751 124.427 121.708 124.288 121.623 124.224C121.537 124.16 121.356 124.128 121.079 124.128C120.993 124.128 120.876 124.139 120.727 124.16C120.599 124.16 120.513 124.16 120.471 124.16C120.108 124.16 119.927 124.011 119.927 123.712ZM131.152 123.808C131.152 123.701 131.173 123.616 131.216 123.552C131.28 123.488 131.387 123.424 131.536 123.36C131.707 123.275 131.877 123.211 132.048 123.168C132.219 123.104 132.464 123.019 132.784 122.912C133.125 122.784 133.445 122.656 133.744 122.528C133.979 122.421 134.192 122.325 134.384 122.24C134.597 122.155 134.736 122.101 134.8 122.08C134.864 122.037 134.939 122.005 135.024 121.984C135.109 121.963 135.216 121.952 135.344 121.952C135.664 121.952 135.824 122.155 135.824 122.56C135.824 122.667 135.792 122.901 135.728 123.264C135.664 123.627 135.632 123.904 135.632 124.096V132.864C135.632 133.504 135.728 134.005 135.92 134.368C136.133 134.731 136.347 134.955 136.56 135.04C136.795 135.125 137.083 135.179 137.424 135.2C137.68 135.221 137.851 135.243 137.936 135.264C138.021 135.264 138.117 135.296 138.224 135.36C138.331 135.424 138.384 135.531 138.384 135.68C138.384 136.043 138.203 136.224 137.84 136.224C137.797 136.224 137.723 136.213 137.616 136.192C137.509 136.192 137.424 136.192 137.36 136.192C136.891 136.192 136.496 136.181 136.176 136.16C135.856 136.139 135.493 136.128 135.088 136.128C134.576 136.128 134.096 136.139 133.648 136.16C133.2 136.181 132.923 136.192 132.816 136.192C131.963 136.192 131.536 136.053 131.536 135.776C131.536 135.477 131.696 135.275 132.016 135.168C132.037 135.168 132.08 135.157 132.144 135.136C132.635 134.965 132.933 134.752 133.04 134.496C133.232 134.069 133.328 132.373 133.328 129.408V126.592C133.328 125.973 133.253 125.483 133.104 125.12C132.955 124.757 132.816 124.533 132.688 124.448C132.56 124.363 132.336 124.299 132.016 124.256C131.717 124.192 131.536 124.149 131.472 124.128C131.259 124.043 131.152 123.936 131.152 123.808ZM132.976 117.12C132.976 116.864 133.157 116.512 133.52 116.064C133.904 115.595 134.256 115.36 134.576 115.36C134.917 115.36 135.248 115.584 135.568 116.032C135.888 116.459 136.048 116.843 136.048 117.184C136.048 117.525 135.845 117.909 135.44 118.336C135.035 118.741 134.736 118.944 134.544 118.944C134.117 118.944 133.744 118.72 133.424 118.272C133.125 117.824 132.976 117.44 132.976 117.12ZM140.086 123.52C140.086 123.392 140.15 123.296 140.278 123.232C140.427 123.168 140.662 123.115 140.982 123.072C141.302 123.029 141.526 122.987 141.654 122.944C142.059 122.837 142.475 122.699 142.902 122.528C143.35 122.336 143.702 122.176 143.958 122.048C144.235 121.92 144.416 121.856 144.502 121.856H144.566C144.758 121.856 144.854 121.984 144.854 122.24C144.854 122.283 144.843 122.475 144.822 122.816C144.8 123.157 144.79 123.424 144.79 123.616C144.79 124.171 144.843 124.448 144.95 124.448C145.014 124.448 145.088 124.395 145.174 124.288C145.259 124.16 145.408 123.989 145.622 123.776C145.856 123.541 146.134 123.328 146.454 123.136C147.414 122.539 148.342 122.24 149.238 122.24C150.091 122.24 150.859 122.379 151.542 122.656C152.224 122.912 152.758 123.243 153.142 123.648C153.526 124.032 153.846 124.48 154.102 124.992C154.358 125.504 154.528 125.973 154.614 126.4C154.699 126.827 154.742 127.232 154.742 127.616C154.742 127.701 154.742 127.808 154.742 127.936C154.742 128.043 154.742 128.192 154.742 128.384C154.763 128.555 154.774 128.971 154.774 129.632C154.774 130.293 154.774 131.147 154.774 132.192V132.896C154.774 133.707 154.88 134.272 155.094 134.592C155.328 134.891 155.872 135.104 156.726 135.232C157.152 135.296 157.366 135.456 157.366 135.712C157.366 135.925 157.152 136.032 156.726 136.032C156.235 136.032 155.723 136.011 155.19 135.968C154.656 135.904 154.294 135.872 154.102 135.872C153.803 135.872 153.334 135.893 152.694 135.936C152.075 135.979 151.723 136 151.638 136C151.211 136 150.998 135.861 150.998 135.584C150.998 135.477 151.03 135.392 151.094 135.328C151.179 135.264 151.264 135.221 151.35 135.2C151.456 135.179 151.552 135.157 151.638 135.136L151.798 135.104C152.267 134.955 152.502 134.24 152.502 132.96V128.64C152.502 126.997 152.096 125.76 151.286 124.928C150.475 124.075 149.504 123.648 148.374 123.648C147.456 123.648 146.656 123.893 145.974 124.384C145.291 124.875 144.896 125.28 144.79 125.6C144.598 126.133 144.502 127.819 144.502 130.656V131.872C144.502 132.939 144.608 133.728 144.822 134.24C145.056 134.752 145.558 135.04 146.326 135.104C146.539 135.104 146.806 135.147 147.126 135.232C147.467 135.296 147.638 135.413 147.638 135.584C147.638 135.861 147.435 136 147.03 136C146.667 136 146.315 135.979 145.974 135.936C145.632 135.893 145.206 135.872 144.694 135.872C144.139 135.872 143.403 135.893 142.486 135.936L141.11 136C140.79 136 140.63 135.893 140.63 135.68C140.63 135.509 140.683 135.403 140.79 135.36C140.896 135.317 141.024 135.285 141.174 135.264C141.344 135.243 141.504 135.179 141.654 135.072C141.824 134.965 141.974 134.709 142.102 134.304C142.23 133.877 142.304 133.312 142.326 132.608C142.368 131.413 142.39 130.613 142.39 130.208V125.6C142.39 124.917 142.262 124.459 142.006 124.224C141.771 123.989 141.44 123.872 141.014 123.872H140.694C140.288 123.872 140.086 123.755 140.086 123.52ZM158.936 139.104C158.936 138.528 159.128 138.037 159.512 137.632C159.896 137.248 160.28 136.96 160.664 136.768C161.048 136.576 161.24 136.448 161.24 136.384C161.24 136.341 161.186 136.277 161.08 136.192C160.973 136.107 160.845 136.011 160.696 135.904C160.568 135.797 160.45 135.616 160.344 135.36C160.237 135.104 160.184 134.816 160.184 134.496C160.184 133.856 160.322 133.301 160.6 132.832C160.877 132.363 161.154 132.011 161.432 131.776C161.709 131.541 161.848 131.392 161.848 131.328C161.848 131.243 161.73 131.104 161.496 130.912C161.282 130.72 161.037 130.507 160.76 130.272C160.482 130.016 160.226 129.611 159.992 129.056C159.778 128.48 159.672 127.808 159.672 127.04C159.672 126.549 159.746 126.059 159.896 125.568C160.066 125.056 160.333 124.533 160.696 124C161.08 123.445 161.656 122.997 162.424 122.656C163.213 122.315 164.141 122.144 165.208 122.144C166.04 122.144 166.754 122.251 167.352 122.464C167.949 122.677 168.386 122.891 168.664 123.104C168.962 123.317 169.154 123.424 169.24 123.424C169.41 123.424 169.954 123.232 170.872 122.848C171.17 122.72 171.394 122.432 171.544 121.984C171.693 121.536 171.853 121.312 172.024 121.312C172.301 121.312 172.44 121.397 172.44 121.568C172.44 122.08 172.365 122.635 172.216 123.232C172.066 123.808 171.906 124.224 171.736 124.48C171.48 124.885 171.042 125.216 170.424 125.472C170.658 126.112 170.776 126.645 170.776 127.072C170.776 128.437 170.264 129.589 169.24 130.528C168.216 131.467 166.968 131.936 165.496 131.936C164.941 131.936 164.408 131.893 163.896 131.808C163.405 131.701 163.117 131.648 163.032 131.648C162.925 131.648 162.786 131.669 162.616 131.712C162.445 131.755 162.232 131.904 161.976 132.16C161.72 132.416 161.592 132.768 161.592 133.216C161.592 133.941 161.922 134.4 162.584 134.592C163.245 134.784 164.344 134.88 165.88 134.88H167.352C170.445 134.88 171.992 135.819 171.992 137.696C171.992 138.357 171.917 138.859 171.768 139.2C171.362 140.245 170.53 141.077 169.272 141.696C168.013 142.315 166.552 142.624 164.888 142.624C163.928 142.624 163.032 142.528 162.2 142.336C161.368 142.165 160.61 141.803 159.928 141.248C159.266 140.693 158.936 139.979 158.936 139.104ZM160.792 138.912C160.792 139.851 161.186 140.555 161.976 141.024C162.765 141.515 163.736 141.76 164.888 141.76C166.21 141.76 167.394 141.483 168.44 140.928C169.506 140.395 170.04 139.701 170.04 138.848C170.04 138.464 169.954 138.155 169.784 137.92C169.613 137.685 169.325 137.515 168.92 137.408C168.514 137.323 168.152 137.269 167.832 137.248C167.533 137.227 167.085 137.216 166.488 137.216H166.2C165.517 137.216 164.685 137.141 163.704 136.992L162.264 136.768C162.05 136.768 161.752 136.981 161.368 137.408C160.984 137.835 160.792 138.336 160.792 138.912ZM162.104 126.72C162.104 128 162.402 129.067 163 129.92C163.618 130.773 164.386 131.2 165.304 131.2C166.264 131.2 167 130.837 167.512 130.112C168.024 129.365 168.28 128.459 168.28 127.392C168.28 126.197 167.981 125.141 167.384 124.224C166.786 123.307 165.976 122.848 164.952 122.848C164.162 122.848 163.49 123.189 162.936 123.872C162.381 124.533 162.104 125.483 162.104 126.72Z" fill="#61FF00"/>
</svg>
