<svg width="177" height="43" viewBox="0 0 177 43" fill="none" xmlns="http://www.w3.org/2000/svg">
<g clip-path="url(#clip0_1_2)">
<g style="mix-blend-mode:darken">
<path d="M148.72 7.944C148.72 7.608 149.056 7.44 149.728 7.44C149.848 7.44 150.304 7.464 151.096 7.512C151.912 7.56 152.776 7.584 153.688 7.584C153.904 7.584 154.276 7.572 154.804 7.548C155.356 7.524 155.764 7.512 156.028 7.512C156.58 7.512 156.916 7.536 157.036 7.584C157.156 7.632 157.216 7.74 157.216 7.908C157.216 8.052 157.096 8.184 156.856 8.304C156.616 8.424 156.364 8.592 156.1 8.808C155.86 9 155.74 9.264 155.74 9.6C155.74 9.912 155.776 10.236 155.848 10.572C155.944 10.884 156.136 11.376 156.424 12.048C156.712 12.72 157 13.392 157.288 14.064C157.6 14.736 158.092 15.828 158.764 17.34C159.46 18.828 160.132 20.304 160.78 21.768C162.796 26.4 163.996 28.716 164.38 28.716C164.5 28.716 165.184 27.264 166.432 24.36C167.704 21.456 168.952 18.42 170.176 15.252C171.4 12.084 172.012 10.212 172.012 9.636C172.012 9.252 171.868 8.964 171.58 8.772C171.316 8.556 171.028 8.436 170.716 8.412C170.404 8.364 170.104 8.304 169.816 8.232C169.552 8.136 169.42 7.992 169.42 7.8C169.42 7.632 169.456 7.536 169.528 7.512C169.624 7.464 169.84 7.44 170.176 7.44C170.248 7.44 170.524 7.452 171.004 7.476C171.484 7.476 171.964 7.476 172.444 7.476C172.876 7.476 173.356 7.464 173.884 7.44C174.436 7.416 175.024 7.404 175.648 7.404C176.104 7.404 176.332 7.572 176.332 7.908C176.332 8.076 176.248 8.22 176.08 8.34C175.936 8.46 175.756 8.568 175.54 8.664C175.324 8.76 175.072 8.964 174.784 9.276C174.496 9.588 174.244 9.996 174.028 10.5L166 28.788C165.424 30.084 164.86 31.404 164.308 32.748C164.044 33.396 163.876 33.78 163.804 33.9C163.732 34.02 163.636 34.08 163.516 34.08C163.084 34.08 162.544 33.252 161.896 31.596C161.272 30.036 160.036 27.252 158.188 23.244C157.276 21.252 156.448 19.416 155.704 17.736C154.96 16.056 154.42 14.82 154.084 14.028C153.772 13.236 153.472 12.528 153.184 11.904C152.92 11.28 152.716 10.836 152.572 10.572C152.428 10.308 152.26 10.068 152.068 9.852C151.66 9.396 151.228 9.072 150.772 8.88C150.34 8.688 149.98 8.604 149.692 8.628C149.428 8.628 149.2 8.592 149.008 8.52C148.816 8.424 148.72 8.232 148.72 7.944Z" fill="#3A0C5E"/>
</g>
<g style="mix-blend-mode:darken">
<path d="M135.998 7.84304C136.002 7.50706 136.339 7.34264 137.011 7.34978C137.107 7.3508 137.263 7.36445 137.479 7.39075C137.695 7.41704 137.862 7.43083 137.982 7.4321C138.054 7.43287 139.182 7.48085 141.365 7.57605C143.548 7.64725 145.348 7.69038 146.764 7.70542C147.268 7.71078 148.504 7.69991 150.473 7.67283C152.465 7.646 153.629 7.63436 153.965 7.63793C154.421 7.64278 154.646 7.92119 154.64 8.47316C154.639 8.61715 154.562 9.09636 154.409 9.91078C154.257 10.7012 154.177 11.4444 154.169 12.1404C154.167 12.3563 154.105 12.5477 153.983 12.7144C153.862 12.8571 153.729 12.9277 153.585 12.9262C153.225 12.9224 153.048 12.6685 153.053 12.1645C153.06 11.5165 152.862 10.9264 152.46 10.3941C152.057 9.86179 151.556 9.58045 150.957 9.55008C148.799 9.35913 147.144 9.25754 145.992 9.2453L145.056 9.23536C143.808 9.2221 143.075 9.31031 142.857 9.50001C142.663 9.66596 142.536 10.3006 142.476 11.4041C142.362 13.131 142.293 15.1343 142.269 17.4142C142.256 18.6141 142.477 19.2285 142.933 19.2574L143.833 19.2669L145.345 19.283L146.461 19.2949C147.901 19.3102 148.861 19.2724 149.342 19.1815C149.823 19.0906 150.257 18.9152 150.644 18.6553C151.103 18.3481 151.384 17.9071 151.486 17.3321C151.562 16.9249 151.733 16.7227 151.996 16.7255C152.212 16.7278 152.344 16.7652 152.391 16.8377C152.439 16.9102 152.461 17.0665 152.458 17.3065C152.457 17.4745 152.403 18.0259 152.297 18.9608C152.191 19.8958 152.135 20.6032 152.13 21.0832C152.125 21.5392 152.133 21.9713 152.152 22.3795C152.196 22.788 152.217 23.0882 152.215 23.2802C152.208 23.8802 152.121 24.1793 151.953 24.1775C151.593 24.1737 151.332 23.8829 151.171 23.3051C150.845 22.2936 150.552 21.7025 150.289 21.5317C149.789 21.1903 148.639 21.0101 146.839 20.991C146.119 20.9833 145.531 20.9771 145.075 20.9722C144.643 20.9676 144.355 20.9646 144.211 20.963C144.091 20.9378 143.983 20.9246 143.887 20.9236C143.815 20.9228 143.743 20.9221 143.671 20.9213C142.687 20.9109 142.193 21.1336 142.188 21.5896C142.181 22.2855 142.16 23.1614 142.124 24.2171C142.089 25.2487 142.068 26.1006 142.061 26.7725L142.046 28.2125C142.028 29.9404 142.305 30.8914 142.88 31.0655C143.478 31.2638 143.992 31.3653 144.424 31.3699C146.224 31.389 147.797 31.3217 149.143 31.168C150.513 31.0146 151.535 30.8214 152.209 30.5886C152.908 30.332 153.487 30.0621 153.946 29.779C154.405 29.4718 154.696 29.1989 154.819 28.9602C154.965 28.6978 155.1 28.4832 155.222 28.3165C155.367 28.15 155.512 28.0675 155.656 28.0691C155.944 28.0721 156.086 28.2776 156.082 28.6856C156.071 29.7176 155.544 30.756 154.5 31.801C153.457 32.846 152.552 33.3644 151.784 33.3562C150.056 33.3378 148.101 33.2571 145.918 33.1139C143.759 32.9709 142.416 32.8966 141.888 32.891C141.216 32.8839 140.376 32.935 139.366 33.0443C138.357 33.1295 137.565 33.1691 136.989 33.163C136.485 33.1576 136.234 33.035 136.237 32.795C136.239 32.579 136.241 32.435 136.241 32.363C136.242 32.291 136.279 32.2314 136.351 32.1842C136.424 32.1369 136.496 32.1137 136.568 32.1145C136.664 32.0915 136.821 32.0451 137.038 31.9754C137.278 31.906 137.531 31.8127 137.797 31.6955C138.376 31.4136 138.754 30.8536 138.931 30.0155C139.131 29.1775 139.246 27.4147 139.275 24.7268L139.322 20.2631C139.329 19.6151 139.352 18.6073 139.39 17.2396C139.453 15.8722 139.488 14.8045 139.496 14.0366C139.503 13.3886 139.491 12.2964 139.459 10.76C139.443 10.0638 139.148 9.52061 138.576 9.13051C138.005 8.74041 137.335 8.52928 136.567 8.49712C136.183 8.49304 135.993 8.27501 135.998 7.84304Z" fill="#DA1F1F"/>
</g>
<g style="mix-blend-mode:darken">
<path d="M112.656 7.70751C112.656 7.49151 112.752 7.37151 112.944 7.34752C113.16 7.29952 113.676 7.27552 114.492 7.27552L117.624 7.27552C118.224 7.27552 119.328 7.25152 120.936 7.20351C122.544 7.15552 123.78 7.13152 124.644 7.13152C126.3 7.13152 127.956 7.38352 129.612 7.88751C131.268 8.39152 132.792 9.12352 134.184 10.0835C135.576 11.0195 136.704 12.2555 137.568 13.7915C138.432 15.3035 138.864 16.9955 138.864 18.8675C138.864 20.5475 138.744 22.0115 138.504 23.2595C138.288 24.4835 137.916 25.5515 137.388 26.4635C136.86 27.3515 136.332 28.0835 135.804 28.6595C135.276 29.2115 134.556 29.8715 133.644 30.6395C132.924 31.2155 131.88 31.7555 130.512 32.2595C129.144 32.7635 127.74 33.0155 126.3 33.0155C126.156 33.0155 124.932 32.9795 122.628 32.9075C120.324 32.8595 118.668 32.8355 117.66 32.8355C116.82 32.8355 116.04 32.8595 115.32 32.9075C114.6 32.9795 114.18 33.0155 114.06 33.0155C113.484 33.0155 113.196 32.8595 113.196 32.5475C113.196 32.3555 113.232 32.2235 113.304 32.1515C113.4 32.0555 113.58 31.9715 113.844 31.8995C114.132 31.8275 114.336 31.7675 114.456 31.7195C114.84 31.5515 115.188 31.2395 115.5 30.7835C115.836 30.3035 116.004 29.8355 116.004 29.3795C116.004 28.0355 116.004 26.3195 116.004 24.2315C116.028 22.1435 116.04 20.6075 116.04 19.6235C116.04 18.7595 116.028 17.4155 116.004 15.5915C116.004 13.7435 116.004 12.0395 116.004 10.4795C116.004 10.0715 115.8 9.66352 115.392 9.25552C115.008 8.82352 114.576 8.59552 114.096 8.57151C113.76 8.54751 113.508 8.52351 113.34 8.49952C113.196 8.47552 113.04 8.40352 112.872 8.28352C112.728 8.13951 112.656 7.94751 112.656 7.70751ZM119.028 27.8315C119.028 28.2875 119.028 28.6595 119.028 28.9475C119.052 29.2355 119.1 29.4995 119.172 29.7395C119.268 29.9795 119.34 30.1475 119.388 30.2435C119.436 30.3395 119.58 30.4475 119.82 30.5675C120.06 30.6875 120.24 30.7715 120.36 30.8195C120.504 30.8435 120.792 30.9155 121.224 31.0355C121.656 31.1555 122.016 31.2515 122.304 31.3235C123.144 31.5635 124.02 31.6835 124.932 31.6835L125.652 31.6835C127.284 31.6835 128.676 31.4555 129.828 30.9995C130.98 30.5195 132.084 29.7755 133.14 28.7675C134.916 27.0635 135.804 24.3035 135.804 20.4875C135.804 18.5675 135.42 16.8275 134.652 15.2675C133.908 13.7075 132.924 12.4715 131.7 11.5595C130.476 10.6235 129.156 9.91552 127.74 9.43552C126.324 8.93152 124.896 8.67952 123.456 8.67952C122.808 8.67952 122.328 8.67952 122.016 8.67952C121.728 8.67952 121.38 8.71552 120.972 8.78752C120.588 8.83552 120.324 8.88352 120.18 8.93152C120.06 8.95552 119.904 9.07552 119.712 9.29152C119.52 9.48352 119.4 9.65152 119.352 9.79552C119.328 9.93952 119.28 10.2275 119.208 10.6595C119.16 11.0675 119.136 11.4275 119.136 11.7395C119.136 12.0515 119.136 12.5555 119.136 13.2515C119.136 13.7795 119.124 15.0275 119.1 16.9955C119.076 18.9395 119.064 19.9955 119.064 20.1635C119.064 21.6035 119.052 23.1635 119.028 24.8435C119.028 26.5235 119.028 27.5195 119.028 27.8315Z" fill="#2FCA80"/>
</g>
<g style="mix-blend-mode:darken">
<path d="M96.3419 24.3333C96.3419 24.0133 96.4699 23.6773 96.7259 23.3253C97.0139 22.9733 97.9099 21.9813 99.4139 20.3493C103.222 16.2213 107.158 11.8693 111.222 7.29331C111.286 7.19731 111.414 7.03731 111.606 6.81331C111.83 6.55731 112.006 6.34931 112.134 6.18931C112.294 5.99731 112.47 5.80531 112.662 5.61331C112.886 5.42131 113.078 5.27731 113.238 5.18131C113.398 5.05331 113.542 4.98931 113.67 4.98931C114.022 4.98931 114.198 5.37331 114.198 6.14131C114.198 6.17331 114.15 7.29331 114.054 9.50131C113.958 11.6773 113.846 13.9973 113.718 16.4613C113.622 18.8933 113.574 20.4453 113.574 21.1173C113.574 21.5653 113.862 21.7893 114.438 21.7893C115.206 21.7893 115.83 21.7413 116.31 21.6453C116.79 21.5173 117.094 21.3893 117.222 21.2613C117.35 21.1013 117.478 20.9733 117.606 20.8773C117.734 20.7493 117.878 20.6853 118.038 20.6853C118.454 20.6853 118.662 20.8933 118.662 21.3093C118.662 21.5013 118.614 21.7253 118.518 21.9813C118.454 22.2373 118.342 22.5573 118.182 22.9413C118.022 23.2933 117.91 23.5493 117.846 23.7093C117.814 23.7733 117.766 23.9013 117.702 24.0933C117.638 24.2533 117.574 24.3973 117.51 24.5253C117.478 24.6213 117.414 24.7333 117.318 24.8613C117.254 24.9893 117.174 25.0853 117.078 25.1493C116.982 25.2133 116.87 25.2453 116.742 25.2453C116.486 25.2453 116.038 25.2293 115.398 25.1973C114.758 25.1973 114.326 25.1973 114.102 25.1973C113.814 25.1973 113.622 25.2613 113.526 25.3893C113.462 25.5173 113.43 25.7573 113.43 26.1093C113.43 26.5893 113.446 27.4213 113.478 28.6053C113.542 29.8213 113.574 30.6853 113.574 31.1973C113.574 31.2613 113.574 31.4373 113.574 31.7253C113.606 32.0133 113.622 32.2533 113.622 32.4453C113.622 33.0533 113.366 33.4373 112.854 33.5973C112.022 33.8213 111.318 33.9333 110.742 33.9333C110.134 33.9333 109.83 33.7093 109.83 33.2613C109.83 33.1333 109.846 32.9733 109.878 32.7813C109.942 32.6213 109.99 32.3813 110.022 32.0613C110.054 31.7733 110.086 31.0853 110.118 29.9973C110.182 28.9093 110.214 27.5013 110.214 25.7733C110.214 25.2613 110.07 25.0053 109.782 25.0053C109.398 25.0053 108.39 25.0213 106.758 25.0533C105.126 25.0853 103.75 25.1013 102.63 25.1013C101.926 25.1013 101.03 25.0853 99.9419 25.0533C98.8859 25.0533 98.1339 25.0533 97.6859 25.0533C97.3019 25.0533 97.0299 25.0373 96.8699 25.0053C96.7419 25.0053 96.6139 24.9573 96.4859 24.8613C96.3899 24.7333 96.3419 24.5573 96.3419 24.3333ZM100.806 21.3573C100.806 21.7413 101.414 21.9333 102.63 21.9333L104.406 21.9333C104.758 21.9333 105.366 21.9493 106.23 21.9813C107.126 21.9813 107.782 21.9813 108.198 21.9813C109.062 21.9813 109.638 21.9653 109.926 21.9333C110.214 21.8693 110.358 21.7253 110.358 21.5013C110.454 16.9573 110.502 13.7733 110.502 11.9493C110.502 11.1813 110.422 10.7973 110.262 10.7973C110.102 10.7973 109.574 11.2773 108.678 12.2373C107.782 13.1653 107.174 13.8213 106.854 14.2053C106.246 14.9733 105.398 15.9493 104.31 17.1333C103.254 18.2853 102.406 19.2453 101.766 20.0133C101.126 20.7493 100.806 21.1973 100.806 21.3573Z" fill="#DD425E"/>
</g>
<g style="mix-blend-mode:darken">
<path d="M90.72 7.98C90.72 7.62 91.056 7.44 91.728 7.44C91.968 7.44 92.52 7.464 93.384 7.512C94.248 7.56 95.052 7.584 95.796 7.584C96.252 7.584 96.684 7.572 97.092 7.548C97.524 7.524 98.148 7.512 98.964 7.512C99.612 7.512 99.936 7.68 99.936 8.016C99.936 8.208 99.384 8.532 98.28 8.988C97.512 9.3 97.128 10.68 97.128 13.128C97.128 16.368 97.104 19.236 97.056 21.732C97.032 24.204 97.02 25.776 97.02 26.448C97.02 28.464 97.32 29.916 97.92 30.804C98.448 31.548 99.024 31.92 99.648 31.92C99.696 31.92 99.816 31.932 100.008 31.956C100.2 31.956 100.32 31.956 100.368 31.956C100.536 31.956 100.704 32.004 100.872 32.1C101.04 32.172 101.124 32.256 101.124 32.352C101.124 32.616 101.052 32.796 100.908 32.892C100.788 32.964 100.56 33 100.224 33C99.504 33 98.832 32.976 98.208 32.928C97.608 32.88 97.14 32.856 96.804 32.856C96.132 32.856 95.4 32.892 94.608 32.964C93.816 33.012 93.228 33.036 92.844 33.036C91.764 33.036 91.224 32.856 91.224 32.496C91.224 32.28 91.332 32.136 91.548 32.064C91.788 31.968 92.052 31.908 92.34 31.884C92.628 31.836 92.928 31.68 93.24 31.416C93.552 31.128 93.768 30.72 93.888 30.192C93.936 30.024 94.008 28.668 94.104 26.124C94.224 23.556 94.284 21.708 94.284 20.58V18.528C94.284 18.216 94.284 17.628 94.284 16.764C94.308 15.876 94.32 15.168 94.32 14.64V12.984C94.32 11.928 94.272 11.052 94.176 10.356C94.104 9.78 93.78 9.336 93.204 9.024C92.652 8.712 92.076 8.544 91.476 8.52C90.972 8.496 90.72 8.316 90.72 7.98Z" fill="#5D1199"/>
</g>
<g style="mix-blend-mode:darken">
<path d="M66.584 20.336C66.584 17.72 67.088 15.368 68.096 13.28C69.104 11.192 70.652 9.512 72.74 8.24C74.852 6.944 77.348 6.296 80.228 6.296C81.692 6.296 83.168 6.512 84.656 6.944C86.144 7.376 87.332 7.808 88.22 8.24L89.552 8.924C89.624 8.924 89.744 8.864 89.912 8.744C90.08 8.624 90.212 8.564 90.308 8.564C90.428 8.564 90.548 8.612 90.668 8.708C90.788 8.804 90.848 8.948 90.848 9.14C90.872 9.836 90.92 10.58 90.992 11.372C91.088 12.14 91.172 12.776 91.244 13.28C91.316 13.784 91.352 14.084 91.352 14.18C91.352 14.612 91.208 14.828 90.92 14.828C90.704 14.828 90.5 14.66 90.308 14.324C87.98 9.956 84.62 7.772 80.228 7.772C77.228 7.772 74.768 8.732 72.848 10.652C70.928 12.572 69.968 15.08 69.968 18.176C69.968 19.88 70.184 21.476 70.616 22.964C71.072 24.452 71.744 25.82 72.632 27.068C73.544 28.292 74.792 29.264 76.376 29.984C77.96 30.704 79.808 31.064 81.92 31.064C85.376 31.064 88.28 29.264 90.632 25.664C90.728 25.496 90.908 25.412 91.172 25.412C91.388 25.412 91.496 25.58 91.496 25.916C91.496 26.18 91.448 26.54 91.352 26.996C91.28 27.428 91.184 27.92 91.064 28.472C90.944 29 90.872 29.324 90.848 29.444C90.8 29.708 90.608 29.924 90.272 30.092C88.976 30.716 87.956 31.184 87.212 31.496C86.492 31.808 85.568 32.084 84.44 32.324C83.312 32.588 82.16 32.72 80.984 32.72C78.896 32.72 77.012 32.468 75.332 31.964C73.652 31.46 72.272 30.8 71.192 29.984C70.136 29.168 69.248 28.22 68.528 27.14C67.808 26.036 67.304 24.932 67.016 23.828C66.728 22.7 66.584 21.536 66.584 20.336Z" fill="#F31982"/>
</g>
<g style="mix-blend-mode:darken">
<path d="M48.72 7.944C48.72 7.56 49.068 7.368 49.764 7.368H55.74C56.292 7.368 56.928 7.356 57.648 7.332C58.368 7.284 58.932 7.26 59.34 7.26C61.5 7.26 63.348 7.812 64.884 8.916C66.42 9.996 67.188 11.46 67.188 13.308C67.188 14.532 66.948 15.612 66.468 16.548C66.012 17.46 65.496 18.12 64.92 18.528C64.368 18.936 63.852 19.296 63.372 19.608C62.916 19.896 62.688 20.088 62.688 20.184C62.688 20.472 63.696 22.032 65.712 24.864C67.728 27.672 69.108 29.472 69.852 30.264C70.764 31.392 71.868 31.956 73.164 31.956C73.5 31.956 73.668 32.1 73.668 32.388C73.668 32.748 73.524 32.988 73.236 33.108C72.948 33.228 72.204 33.288 71.004 33.288C69.876 33.288 68.844 33.012 67.908 32.46C66.708 31.764 64.68 29.076 61.824 24.396C61.656 24.132 61.536 23.94 61.464 23.82C60.312 21.948 59.424 21.012 58.8 21.012H58.044H55.848C55.56 21.012 55.38 21.132 55.308 21.372C55.26 21.612 55.236 22.344 55.236 23.568C55.236 24.72 55.236 25.668 55.236 26.412C55.236 27.156 55.236 27.636 55.236 27.852C55.26 28.044 55.272 28.212 55.272 28.356C55.272 28.476 55.272 28.572 55.272 28.644C55.272 29.628 55.5 30.396 55.956 30.948C56.412 31.476 56.916 31.788 57.468 31.884C58.044 31.956 58.56 32.052 59.016 32.172C59.472 32.268 59.7 32.436 59.7 32.676C59.7 33.06 59.484 33.252 59.052 33.252C59.028 33.252 58.2 33.204 56.568 33.108C54.936 33.036 54.048 33 53.904 33C53.208 33 52.38 33.024 51.42 33.072C50.46 33.12 49.968 33.144 49.944 33.144C49.44 33.144 49.188 32.952 49.188 32.568C49.188 32.304 49.344 32.124 49.656 32.028C49.968 31.908 50.316 31.824 50.7 31.776C51.084 31.728 51.432 31.464 51.744 30.984C52.056 30.504 52.212 29.82 52.212 28.932C52.212 28.308 52.212 26.628 52.212 23.892C52.236 21.156 52.248 19.056 52.248 17.592C52.248 16.104 52.236 14.748 52.212 13.524C52.212 12.276 52.212 11.604 52.212 11.508C52.212 10.62 52.032 9.948 51.672 9.492C51.312 9.012 50.904 8.748 50.448 8.7C50.016 8.628 49.62 8.544 49.26 8.448C48.9 8.352 48.72 8.184 48.72 7.944ZM55.236 13.704C55.236 16.176 55.248 17.712 55.272 18.312C55.296 18.888 55.38 19.224 55.524 19.32C55.884 19.536 56.4 19.644 57.072 19.644H57.432H58.476C60.516 19.644 61.968 19.176 62.832 18.24C63.72 17.304 64.164 16.104 64.164 14.64C64.164 13.152 63.576 11.796 62.4 10.572C61.248 9.348 59.496 8.736 57.144 8.736C56.256 8.736 55.716 8.976 55.524 9.456C55.332 9.912 55.236 10.992 55.236 12.696V13.704Z" fill="#1FB71C"/>
</g>
<g style="mix-blend-mode:darken">
<path d="M30.72 7.836C30.72 7.5 31.056 7.332 31.728 7.332C31.824 7.332 31.98 7.344 32.196 7.368C32.412 7.392 32.58 7.404 32.7 7.404C32.772 7.404 33.9 7.44 36.084 7.512C38.268 7.56 40.068 7.584 41.484 7.584C41.988 7.584 43.224 7.56 45.192 7.512C47.184 7.464 48.348 7.44 48.684 7.44C49.14 7.44 49.368 7.716 49.368 8.268C49.368 8.412 49.296 8.892 49.152 9.708C49.008 10.5 48.936 11.244 48.936 11.94C48.936 12.156 48.876 12.348 48.756 12.516C48.636 12.66 48.504 12.732 48.36 12.732C48 12.732 47.82 12.48 47.82 11.976C47.82 11.328 47.616 10.74 47.208 10.212C46.8 9.684 46.296 9.408 45.696 9.384C43.536 9.216 41.88 9.132 40.728 9.132H39.792C38.544 9.132 37.812 9.228 37.596 9.42C37.404 9.588 37.284 10.224 37.236 11.328C37.14 13.056 37.092 15.06 37.092 17.34C37.092 18.54 37.32 19.152 37.776 19.176H38.676H40.188H41.304C42.744 19.176 43.704 19.128 44.184 19.032C44.664 18.936 45.096 18.756 45.48 18.492C45.936 18.18 46.212 17.736 46.308 17.16C46.38 16.752 46.548 16.548 46.812 16.548C47.028 16.548 47.16 16.584 47.208 16.656C47.256 16.728 47.28 16.884 47.28 17.124C47.28 17.292 47.232 17.844 47.136 18.78C47.04 19.716 46.992 20.424 46.992 20.904C46.992 21.36 47.004 21.792 47.028 22.2C47.076 22.608 47.1 22.908 47.1 23.1C47.1 23.7 47.016 24 46.848 24C46.488 24 46.224 23.712 46.056 23.136C45.72 22.128 45.42 21.54 45.156 21.372C44.652 21.036 43.5 20.868 41.7 20.868C40.98 20.868 40.392 20.868 39.936 20.868C39.504 20.868 39.216 20.868 39.072 20.868C38.952 20.844 38.844 20.832 38.748 20.832C38.676 20.832 38.604 20.832 38.532 20.832C37.548 20.832 37.056 21.06 37.056 21.516C37.056 22.212 37.044 23.088 37.02 24.144C36.996 25.176 36.984 26.028 36.984 26.7V28.14C36.984 29.868 37.272 30.816 37.848 30.984C38.448 31.176 38.964 31.272 39.396 31.272C41.196 31.272 42.768 31.188 44.112 31.02C45.48 30.852 46.5 30.648 47.172 30.408C47.868 30.144 48.444 29.868 48.9 29.58C49.356 29.268 49.644 28.992 49.764 28.752C49.908 28.488 50.04 28.272 50.16 28.104C50.304 27.936 50.448 27.852 50.592 27.852C50.88 27.852 51.024 28.056 51.024 28.464C51.024 29.496 50.508 30.54 49.476 31.596C48.444 32.652 47.544 33.18 46.776 33.18C45.048 33.18 43.092 33.12 40.908 33C38.748 32.88 37.404 32.82 36.876 32.82C36.204 32.82 35.364 32.88 34.356 33C33.348 33.096 32.556 33.144 31.98 33.144C31.476 33.144 31.224 33.024 31.224 32.784C31.224 32.568 31.224 32.424 31.224 32.352C31.224 32.28 31.26 32.22 31.332 32.172C31.404 32.124 31.476 32.1 31.548 32.1C31.644 32.076 31.8 32.028 32.016 31.956C32.256 31.884 32.508 31.788 32.772 31.668C33.348 31.38 33.72 30.816 33.888 29.976C34.08 29.136 34.176 27.372 34.176 24.684V20.22C34.176 19.572 34.188 18.564 34.212 17.196C34.26 15.828 34.284 14.76 34.284 13.992C34.284 13.344 34.26 12.252 34.212 10.716C34.188 10.02 33.888 9.48 33.312 9.096C32.736 8.712 32.064 8.508 31.296 8.484C30.912 8.484 30.72 8.268 30.72 7.836Z" fill="#E46E00"/>
</g>
<g style="mix-blend-mode:darken">
<path d="M0.72 7.98C0.72 7.62 0.936 7.44 1.368 7.44C1.512 7.44 1.836 7.464 2.34 7.512C2.868 7.56 3.18 7.584 3.276 7.584C3.636 7.584 4.128 7.572 4.752 7.548C5.376 7.524 5.784 7.512 5.976 7.512C6.432 7.512 6.72 7.68 6.84 8.016C7.128 8.64 7.644 9.768 8.388 11.4C9.132 13.008 9.72 14.292 10.152 15.252C10.608 16.212 11.184 17.436 11.88 18.924C12.576 20.412 13.14 21.624 13.572 22.56C14.004 23.472 14.448 24.396 14.904 25.332C15.384 26.268 15.744 26.964 15.984 27.42C16.248 27.852 16.416 28.068 16.488 28.068C16.56 28.068 16.632 28.032 16.704 27.96C16.8 27.864 16.884 27.744 16.956 27.6C17.052 27.456 17.124 27.312 17.172 27.168C17.244 27.024 17.328 26.844 17.424 26.628C17.544 26.388 17.628 26.208 17.676 26.088L22.32 16.512C22.848 15.432 23.316 14.46 23.724 13.596C24.132 12.732 24.456 12.036 24.696 11.508C24.936 10.98 25.14 10.524 25.308 10.14C25.476 9.756 25.596 9.468 25.668 9.276C25.764 9.084 25.824 8.94 25.848 8.844C25.896 8.724 25.932 8.64 25.956 8.592C25.98 8.52 26.004 8.46 26.028 8.412C26.052 8.364 26.088 8.256 26.136 8.088C26.208 7.92 26.268 7.812 26.316 7.764C26.388 7.692 26.508 7.62 26.676 7.548C26.868 7.476 27.108 7.44 27.396 7.44C27.852 7.44 28.272 7.452 28.656 7.476C29.064 7.5 29.676 7.512 30.492 7.512C30.9 7.512 31.104 7.668 31.104 7.98C31.104 8.22 31.02 8.4 30.852 8.52C30.708 8.616 30.396 8.7 29.916 8.772C29.316 8.844 28.896 9.144 28.656 9.672C28.416 10.2 28.296 11.208 28.296 12.696C28.296 15.936 28.368 18.876 28.512 21.516C28.656 24.132 28.728 25.776 28.728 26.448C28.728 28.848 28.92 30.384 29.304 31.056C29.688 31.704 30.492 32.028 31.716 32.028C31.884 32.028 32.028 32.088 32.148 32.208C32.292 32.328 32.364 32.436 32.364 32.532C32.364 32.676 32.352 32.784 32.328 32.856C32.304 32.928 32.256 32.988 32.184 33.036C32.112 33.084 32.04 33.108 31.968 33.108C31.896 33.108 31.764 33.108 31.572 33.108C30.852 33.108 30.144 33.084 29.448 33.036C28.752 32.988 28.236 32.964 27.9 32.964C27.228 32.964 26.532 32.988 25.812 33.036C25.092 33.108 24.54 33.144 24.156 33.144C23.724 33.144 23.508 32.976 23.508 32.64C23.508 32.424 23.604 32.268 23.796 32.172C23.988 32.076 24.204 32.016 24.444 31.992C24.708 31.968 24.972 31.824 25.236 31.56C25.524 31.272 25.728 30.852 25.848 30.3C25.944 29.82 25.992 29.052 25.992 27.996C25.992 27.228 25.968 26.304 25.92 25.224C25.896 24.144 25.86 23.1 25.812 22.092C25.764 21.06 25.716 20.1 25.668 19.212C25.62 18.3 25.584 17.556 25.56 16.98L25.488 16.116C25.488 15.084 25.38 14.568 25.164 14.568C25.14 14.568 25.104 14.58 25.056 14.604C25.008 14.628 24.96 14.664 24.912 14.712C24.888 14.76 24.852 14.808 24.804 14.856C24.756 14.904 24.708 14.988 24.66 15.108C24.612 15.204 24.564 15.288 24.516 15.36C24.468 15.432 24.408 15.54 24.336 15.684C24.264 15.804 24.204 15.912 24.156 16.008C24.108 16.104 24.036 16.236 23.94 16.404C23.868 16.572 23.808 16.716 23.76 16.836L18.756 26.952C18.18 28.128 17.568 29.388 16.92 30.732C16.488 31.644 16.224 32.184 16.128 32.352C16.032 32.496 15.912 32.568 15.768 32.568C15.552 32.568 15.372 32.472 15.228 32.28C15.084 32.064 14.868 31.608 14.58 30.912C14.292 30.216 14.04 29.64 13.824 29.184C9.432 20.256 7.176 15.708 7.056 15.54C6.984 15.444 6.912 15.396 6.84 15.396C6.648 15.396 6.552 15.876 6.552 16.836C6.528 18.708 6.468 20.556 6.372 22.38C6.276 24.204 6.228 25.524 6.228 26.34V27.96C6.228 28.584 6.24 29.064 6.264 29.4C6.312 29.736 6.408 30.132 6.552 30.588C6.72 31.02 7.008 31.356 7.416 31.596C7.824 31.836 8.352 31.992 9 32.064C9.12 32.064 9.228 32.112 9.324 32.208C9.444 32.28 9.504 32.364 9.504 32.46C9.504 32.724 9.468 32.904 9.396 33C9.324 33.072 9.18 33.108 8.964 33.108C8.484 33.108 7.764 33.084 6.804 33.036C5.844 32.988 5.316 32.964 5.22 32.964C5.172 32.964 4.824 32.976 4.176 33C3.528 33.048 2.892 33.072 2.268 33.072C2.076 33.072 1.932 33.06 1.836 33.036C1.764 33.012 1.692 32.964 1.62 32.892C1.548 32.796 1.512 32.664 1.512 32.496C1.512 32.304 1.62 32.172 1.836 32.1C2.052 32.028 2.292 31.992 2.556 31.992C2.844 31.968 3.156 31.776 3.492 31.416C3.828 31.032 4.08 30.48 4.248 29.76C4.368 29.232 4.512 27.144 4.68 23.496C4.848 19.848 4.932 17.148 4.932 15.396C4.932 12.996 4.692 11.34 4.212 10.428C3.756 9.516 2.748 8.88 1.188 8.52C0.876 8.448 0.72 8.268 0.72 7.98Z" fill="#3A0C5E"/>
</g>
</g>
<defs>
<clipPath id="clip0_1_2">
<rect width="177" height="43" fill="white"/>
</clipPath>
</defs>
</svg>
